<?xml version="1.0" encoding="UTF-8" standalone="no"?>
<!-- Created with Inkscape (http://www.inkscape.org/) -->

<svg
   xmlns:dc="http://purl.org/dc/elements/1.1/"
   xmlns:cc="http://creativecommons.org/ns#"
   xmlns:rdf="http://www.w3.org/1999/02/22-rdf-syntax-ns#"
   xmlns:svg="http://www.w3.org/2000/svg"
   xmlns="http://www.w3.org/2000/svg"
   xmlns:sodipodi="http://sodipodi.sourceforge.net/DTD/sodipodi-0.dtd"
   xmlns:inkscape="http://www.inkscape.org/namespaces/inkscape"
   width="400"
   height="300"
   viewBox="0 0 105.83333 79.375002"
   version="1.1"
   id="svg8"
   inkscape:version="0.92.1 r15371"
   sodipodi:docname="DeleteAContent.svg">
  <defs
     id="defs2" />
  <sodipodi:namedview
     id="base"
     pagecolor="#ffffff"
     bordercolor="#666666"
     borderopacity="1.0"
     inkscape:pageopacity="0.0"
     inkscape:pageshadow="2"
     inkscape:zoom="5.0298862"
     inkscape:cx="65.472218"
     inkscape:cy="157.44879"
     inkscape:document-units="mm"
     inkscape:current-layer="layer2"
     showgrid="false"
     units="px"
     inkscape:pagecheckerboard="true"
     inkscape:window-width="4622"
     inkscape:window-height="2473"
     inkscape:window-x="-13"
     inkscape:window-y="-13"
     inkscape:window-maximized="1" />
  <metadata
     id="metadata5">
    <rdf:RDF>
      <cc:Work
         rdf:about="">
        <dc:format>image/svg+xml</dc:format>
        <dc:type
           rdf:resource="http://purl.org/dc/dcmitype/StillImage" />
        <dc:title></dc:title>
      </cc:Work>
    </rdf:RDF>
  </metadata>
  <g
     inkscape:groupmode="layer"
     id="layer2"
     inkscape:label="Fonts">
    <rect
       style="fill:#e0e0e0;fill-opacity:1;fill-rule:nonzero;stroke:#000000;stroke-width:0.20957094;stroke-opacity:1"
       id="rect4547"
       width="20.957094"
       height="20.957096"
       x="29.208952"
       y="29.208954" />
    <rect
       style="fill:#ffffff;fill-opacity:1;fill-rule:nonzero;stroke:#000000;stroke-width:0.20957094;stroke-opacity:1"
       id="rect4547-8"
       width="20.957094"
       height="20.957096"
       x="55.667286"
       y="29.208952" />
    <g
       id="g4683"
       style="font-style:normal;font-weight:normal;font-size:24.1458683px;line-height:1.25;font-family:sans-serif;letter-spacing:0px;word-spacing:0px;fill:#000000;fill-opacity:1;stroke:none;stroke-width:0.6036467"
       transform="matrix(1.0468073,0,0,0.95528564,-52.063684,-243.66224)"
       aria-label="A">
      <path
         id="path4681"
         style="stroke-width:0.6036467"
         d="m 95.933243,279.05176 h -2.487684 l -1.721337,-4.89284 h -7.592743 l -1.721337,4.89284 h -2.369785 l 6.390167,-17.55527 h 3.112553 z m -4.928209,-6.89714 -3.077183,-8.61847 -3.088974,8.61847 z"
         inkscape:connector-curvature="0" />
    </g>
    <g
       id="g6437"
       transform="matrix(1.267691,0,0,1.2446057,-4.0987013,-43.519039)">
      <path
         sodipodi:nodetypes="cczczczczccszczzczczczczzczzzc"
         inkscape:connector-curvature="0"
         id="path6431"
         d="M 6.2488285,51.738812 C 5.1326846,50.900595 4.4634488,49.209523 4.4634488,49.209523 c 0,0 -0.3545263,2.016584 0.074391,2.975634 0.4289173,0.95905 1.562207,2.008552 1.562207,2.008552 0,0 -0.843096,-0.198375 -1.2274485,-0.48354 C 4.4882457,53.425004 3.7939315,52.48272 3.7939315,52.48272 c 0,0 -0.2603681,1.153061 0.7439081,2.752461 1.0042762,1.5994 3.273196,1.859768 3.273196,1.859768 0,0 -1.7753599,-0.126395 -2.2689198,-0.260368 -0.49356,-0.133972 -1.4506209,-0.706712 -1.4506209,-0.706712 0.3726253,1.008597 0.00484,1.419768 1.1158622,2.231726 1.0701726,1.023131 2.4548968,1.115862 2.4548968,1.115862 0.00983,3.9e-4 1.6092331,0.279355 2.9830051,0.03749 1.373773,-0.241868 2.521915,-1.004569 2.521915,-1.004569 0,0 4.159208,1.690846 6.100047,1.562206 1.940839,-0.12864 4.176384,-1.310139 4.984185,-2.00855 0.807801,-0.698411 0.520735,-0.892691 0.520735,-0.892691 0,0 -1.264644,0.421548 -1.934161,0.446345 -0.669517,0.0248 -2.082943,-0.297563 -2.082943,-0.297563 0,0 2.579536,-1.060187 3.198805,-1.78538 0.61927,-0.725193 1.115863,-2.00855 1.115863,-2.00855 0,0 -1.091065,0.595126 -1.636598,0.743907 -0.545533,0.148782 -1.636598,0.148781 -1.636598,0.148781 0,0 2.266932,-1.549098 2.529287,-2.678068 0.262355,-1.12897 -0.447729,-2.5737 -0.96708,-3.124414 -0.519351,-0.550714 -1.562207,-1.190255 -1.562207,-1.190255 0,0 0.47944,2.218921 -0.520736,3.273198 -1.000176,1.054277 -3.975251,2.566424 -5.579311,2.901241 -1.60406,0.334816 -2.661133,0.726568 -4.240277,0.297562 C 9.8770415,53.467138 8.6080863,53.357653 6.2488285,51.738812 Z"
         style="fill:none;stroke:#000000;stroke-width:0.26458332px;stroke-linecap:butt;stroke-linejoin:miter;stroke-opacity:1" />
      <path
         transform="scale(0.26458333)"
         inkscape:connector-curvature="0"
         id="path6433"
         d="m 69.916323,226.38501 c -3.994737,-0.44764 -10.62444,-2.292 -17.680528,-4.91866 l -2.566322,-0.95532 -0.877914,0.53316 c -2.014777,1.22357 -4.7163,2.35544 -7.063484,2.9594 -2.275871,0.58561 -4.266386,0.76104 -7.501473,0.66114 -7.093138,-0.21904 -10.3926,-1.28412 -14.294421,-4.61431 -1.658551,-1.41557 -2.084118,-1.87808 -2.503445,-2.72079 -0.310503,-0.62402 -1.013598,-3.69363 -0.877254,-3.82997 0.02927,-0.0293 0.743896,0.29315 1.588045,0.71651 1.934394,0.97014 3.018871,1.28977 5.313009,1.56595 2.601136,0.31313 5.982823,0.59387 6.039403,0.50138 0.02642,-0.0432 0.07011,-0.29326 0.0971,-0.55571 l 0.04906,-0.4772 -1.28108,-0.25887 c -2.540546,-0.51339 -4.94685,-1.49873 -7.041415,-2.88333 -2.672559,-1.76667 -4.699114,-4.6362 -5.844716,-8.27589 -0.391214,-1.24293 -0.719154,-3.05939 -0.642987,-3.5615 0.04403,-0.29024 0.10722,-0.24789 0.602631,0.40383 0.304394,0.40044 1.032398,1.21744 1.617786,1.81555 0.830166,0.84821 1.305384,1.20186 2.159906,1.60737 1.104533,0.52414 3.981935,1.42135 5.064958,1.57932 l 0.58516,0.0854 -1.62666,-1.59691 c -3.468783,-3.40532 -5.391968,-6.13669 -6.000051,-8.52146 -0.19214,-0.75353 -0.241255,-1.56795 -0.239446,-3.97047 0.0013,-1.66237 0.05101,-3.14681 0.110577,-3.29876 0.09001,-0.22959 0.204061,-0.099 0.675188,0.7732 1.948628,3.60743 4.278461,6.16169 7.432828,8.1488 2.978162,1.87611 6.835627,3.74843 9.631698,4.67497 3.60843,1.19575 9.876935,2.71962 11.984789,2.9135 2.740232,0.25204 4.184963,0.079 10.153852,-1.21593 5.426013,-1.17719 8.310336,-2.21401 13.636363,-4.90186 5.710821,-2.88204 9.817991,-5.8513 11.17558,-8.07934 1.174581,-1.92769 1.75412,-5.09033 1.519636,-8.29293 -0.07643,-1.04381 -0.129967,-1.91158 -0.118985,-1.92837 0.04966,-0.0759 2.644659,1.84918 3.623883,2.68837 2.916719,2.49963 4.93137,7.22461 4.713052,11.05357 -0.08397,1.47268 -0.476807,2.42235 -1.629801,3.93998 -1.43648,1.89076 -5.31776,5.33859 -8.219702,7.30175 -0.514324,0.34793 -0.93664,0.68006 -0.93848,0.73805 -0.0074,0.23158 5.531171,-0.0559 7.189443,-0.37318 1.108322,-0.21205 2.794831,-0.85405 4.501962,-1.71375 0.542498,-0.2732 1.018608,-0.46448 1.058022,-0.42506 0.108248,0.10825 -1.566751,3.2356 -2.423785,4.52539 -0.90171,1.35702 -1.625775,2.04871 -3.265745,3.11971 -1.54059,1.00611 -5.906193,3.21286 -8.679925,4.38759 -1.159794,0.4912 -2.162531,0.93973 -2.228303,0.99673 -0.140676,0.12193 -0.02216,0.1588 1.736269,0.5402 4.023042,0.87258 6.881206,1.20131 8.586175,0.98752 1.012273,-0.12693 5.007465,-1.06489 5.647659,-1.32591 0.486999,-0.19856 0.233216,0.22356 -0.76823,1.27782 -1.27258,1.3397 -3.557308,2.88346 -6.370823,4.3047 -5.881149,2.97082 -11.562671,4.37051 -15.809064,3.89467 z"
         style="fill:#ffffff;fill-opacity:1;fill-rule:nonzero;stroke:#cecece;stroke-width:0.14080244;stroke-miterlimit:4;stroke-dasharray:0.14080245, 0.14080245;stroke-dashoffset:0;stroke-opacity:1" />
    </g>
    <g
       aria-label="B"
       style="font-style:normal;font-weight:normal;font-size:10.58333302px;line-height:1.25;font-family:sans-serif;letter-spacing:0px;word-spacing:0px;fill:#000000;fill-opacity:1;stroke:none;stroke-width:0.26458332"
       id="text5054"
       transform="matrix(2.7040798,0,0,2.2578675,-82.318833,-67.375818)">
      <path
         d="m 38.608551,44.973449 q 0,0.573608 -0.217041,1.012858 -0.217041,0.439249 -0.583944,0.72347 -0.434082,0.341064 -0.956014,0.485758 -0.516764,0.144694 -1.317749,0.144694 h -2.728515 v -7.694621 h 2.27893 q 0.842326,0 1.260905,0.06201 0.418579,0.06201 0.800985,0.258382 0.423747,0.222209 0.614949,0.573609 0.191203,0.346232 0.191203,0.83199 0,0.54777 -0.279053,0.935344 -0.279052,0.382405 -0.74414,0.614949 v 0.04134 q 0.780314,0.160197 1.229899,0.687297 0.449585,0.521932 0.449585,1.322917 z M 36.887726,41.50596 q 0,-0.279053 -0.09302,-0.470256 -0.09302,-0.191202 -0.299723,-0.310058 -0.242879,-0.139526 -0.589112,-0.170532 -0.346232,-0.03617 -0.857828,-0.03617 h -1.219564 v 2.222087 h 1.322917 q 0.48059,0 0.764811,-0.04651 0.28422,-0.05168 0.527099,-0.206706 0.24288,-0.155029 0.341065,-0.397908 0.103353,-0.248047 0.103353,-0.583944 z m 0.65629,3.50883 q 0,-0.465088 -0.139526,-0.738973 -0.139526,-0.273885 -0.506429,-0.465088 -0.248047,-0.129191 -0.604614,-0.165365 -0.3514,-0.04134 -0.857829,-0.04134 h -1.607137 v 2.862874 h 1.353922 q 0.671794,0 1.100708,-0.06718 0.428915,-0.07235 0.7028,-0.258382 0.289388,-0.201538 0.423747,-0.45992 0.134358,-0.258383 0.134358,-0.666626 z"
         style="stroke-width:0.26458332"
         id="path5056"
         inkscape:connector-curvature="0" />
    </g>
    <text
       xml:space="preserve"
       style="font-style:normal;font-weight:normal;font-size:29.35805321px;line-height:1.25;font-family:sans-serif;letter-spacing:0px;word-spacing:0px;fill:#000000;fill-opacity:1;stroke:none;stroke-width:0.73395127"
       x="57.962646"
       y="20.967825"
       id="text5064"
       transform="scale(0.97048663,1.0304109)"><tspan
         sodipodi:role="line"
         id="tspan5062"
         x="57.962646"
         y="20.967825"
         style="font-style:normal;font-variant:normal;font-weight:normal;font-stretch:normal;font-family:symbol;-inkscape-font-specification:symbol;stroke-width:0.73395127">a</tspan></text>
    <g
       aria-label="b"
       transform="matrix(1.2043015,0,0,0.83035688,-0.24475616,0.13724381)"
       style="font-style:normal;font-weight:normal;font-size:24.85632515px;line-height:1.25;font-family:sans-serif;letter-spacing:0px;word-spacing:0px;fill:#000000;fill-opacity:1;stroke:none;stroke-width:0.62140805"
       id="text5068">
      <path
         inkscape:connector-curvature="0"
         d="m 52.237961,53.198076 v 2.051132 q 0,1.966175 -0.485475,4.260044 h -2.051132 q 0.327696,-1.504972 0.38838,-2.051132 0.15778,-1.699163 0.15778,-2.48806 V 42.566171 q 0,-2.172501 0.42479,-3.216272 0.436928,-1.055909 1.553521,-1.759847 1.128729,-0.703939 2.694386,-0.703939 2.172501,0 3.471147,1.16514 1.298646,1.16514 1.298646,2.767208 0,1.031635 -0.534022,1.966174 -0.521886,0.922403 -1.626342,1.602068 3.252683,1.55352 3.252683,4.830477 0,1.456426 -0.679665,2.718661 -0.679665,1.262235 -1.869079,1.929763 -1.189414,0.655392 -2.451649,0.655392 -0.813171,0 -1.614205,-0.279148 -0.788897,-0.279149 -1.929764,-1.043772 z m 0,-0.958813 q 1.177278,0.825307 2.051133,1.189414 0.655391,0.267011 1.310783,0.267011 1.225824,0 2.051132,-1.007361 0.837444,-1.019498 0.837444,-3.216272 0,-1.383604 -0.400517,-2.415239 -0.38838,-1.043771 -1.383604,-2.281733 -0.837444,0.279148 -1.444288,0.279148 -0.728213,0 -1.031635,-0.218464 -0.291285,-0.218463 -0.291285,-0.473338 0,-0.2306 0.230601,-0.412654 0.230601,-0.182053 0.74035,-0.182053 0.594707,0 1.796257,0.315559 0.849582,-1.687026 0.849582,-3.191999 0,-1.529246 -0.752487,-2.366691 -0.752486,-0.837444 -1.869079,-0.837444 -1.407878,0 -2.184638,1.189414 -0.509749,0.788897 -0.509749,2.536607 z"
         style="font-style:normal;font-variant:normal;font-weight:normal;font-stretch:normal;font-family:Symbol;-inkscape-font-specification:Symbol;stroke-width:0.62140805"
         id="path5084" />
    </g>
    <g
       aria-label="c"
       transform="matrix(1.0985076,0,0,0.91032597,-0.24475616,0.13724381)"
       style="font-style:normal;font-weight:normal;font-size:28.66705894px;line-height:1.25;font-family:sans-serif;letter-spacing:0px;word-spacing:0px;fill:#000000;fill-opacity:1;stroke:none;stroke-width:0.71667641"
       id="text5082">
      <path
         inkscape:connector-curvature="0"
         d="m 66.694094,61.853472 -5.2211,10.190244 0.895845,3.555387 q 0.545906,2.183624 1.091812,2.72953 0.545906,0.545906 1.455749,0.545906 1.049819,0 1.665713,-0.601897 0.629891,-0.601896 0.741872,-1.931667 h 0.517911 q 0.014,0.34994 0.014,0.531909 0,1.777693 -1.077814,3.107464 -0.699879,0.881848 -1.819686,0.881848 -0.783865,0 -1.399759,-0.419928 -0.615894,-0.40593 -1.007826,-1.21779 -0.615894,-1.315773 -0.839855,-2.239614 l -0.895846,-3.65337 -3.723358,7.264748 H 54.642174 L 60.00325,70.042061 58.967428,65.912773 q -0.335942,-1.357766 -0.81186,-1.777694 -0.46192,-0.419927 -1.315773,-0.419927 -0.937838,0 -1.511739,0.587898 -0.573901,0.587899 -0.685882,1.889675 h -0.489916 q 0.05599,-2.463576 0.993829,-3.681366 0.685882,-0.895846 1.763696,-0.895846 1.119807,0 1.749699,0.797863 0.629891,0.797862 0.951836,2.113636 l 1.035821,4.255266 3.527392,-6.928806 z"
         style="font-style:normal;font-variant:normal;font-weight:normal;font-stretch:normal;font-family:Symbol;-inkscape-font-specification:Symbol;stroke-width:0.71667641"
         id="path5087" />
    </g>
    <path
       inkscape:connector-curvature="0"
       d="m 47.235793,72.841042 q -0.66521,0.287172 -1.209472,0.538447 -0.532168,0.251276 -1.402988,0.526483 -0.737778,0.227345 -1.608598,0.382896 -0.858726,0.167517 -1.898872,0.167517 -1.959345,0 -3.567943,-0.538447 -1.596503,-0.550415 -2.781786,-1.711069 -1.161094,-1.136723 -1.814209,-2.883687 -0.653115,-1.75893 -0.653115,-4.080237 0,-2.201654 0.628926,-3.936653 0.628925,-1.734999 1.814208,-2.931549 1.148999,-1.160654 2.769692,-1.770896 1.632788,-0.610241 3.616322,-0.610241 1.451367,0 2.890639,0.347001 1.451367,0.346999 3.217196,1.220481 v 2.811893 h -0.181421 q -1.487651,-1.232446 -2.951112,-1.794825 -1.463462,-0.562378 -3.132533,-0.562378 -1.366704,0 -2.467324,0.442723 -1.088525,0.430757 -1.94725,1.352103 -0.834536,0.897412 -1.30623,2.273446 -0.4596,1.364068 -0.4596,3.158895 0,1.878584 0.507979,3.230686 0.520073,1.352103 1.330419,2.201653 0.846631,0.885448 1.971439,1.316206 1.136905,0.418793 2.394756,0.418793 1.729546,0 3.241387,-0.58631 1.511839,-0.586309 2.830164,-1.75893 h 0.169326 z"
       style="font-style:normal;font-weight:normal;font-size:24.63732147px;line-height:1.25;font-family:sans-serif;letter-spacing:0px;word-spacing:0px;fill:#000000;fill-opacity:1;stroke:none;stroke-width:0.615933"
       id="path4611-9" />
    <path
       style="fill:#ffffff;fill-opacity:1;fill-rule:nonzero;stroke:#cecece;stroke-width:0.14080244;stroke-miterlimit:4;stroke-dasharray:0.14080245, 0.14080245;stroke-dashoffset:0;stroke-opacity:1"
       d="m 34.628731,129.66089 v -12.18977 l 11.351922,0.0682 c 11.73253,0.0705 13.902633,0.16619 16.641225,0.73419 3.183817,0.66034 6.214655,2.23017 7.782401,4.03091 0.619263,0.7113 1.372539,2.22428 1.702362,3.41926 0.154722,0.56058 0.254667,1.6215 0.297978,3.16308 0.07878,2.80389 -0.105478,3.87862 -0.964058,5.62324 -0.475327,0.96585 -0.820867,1.42402 -1.802372,2.38988 -2.342495,2.30514 -5.390045,3.65583 -9.671216,4.28635 -3.050967,0.44933 -4.869413,0.52123 -14.970388,0.59191 l -10.367854,0.0726 z"
       id="path6439"
       inkscape:connector-curvature="0"
       transform="scale(0.26458333)" />
    <ellipse
       style="fill:#ffffff;fill-opacity:1;fill-rule:nonzero;stroke:#feff03;stroke-width:1;stroke-miterlimit:4;stroke-dasharray:none;stroke-dashoffset:0;stroke-opacity:1"
       id="path6441"
       cx="13.042825"
       cy="15.49791"
       rx="7.4762774"
       ry="2.380506" />
    <path
       style="fill:none;stroke:#000000;stroke-width:0.26458332px;stroke-linecap:butt;stroke-linejoin:miter;stroke-opacity:1"
       d="m 30.946579,46.196697 c 0,0 -6.379517,3.004367 -9.15007,3.570758 -2.770553,0.566391 -5.489622,1.111413 -7.141519,0.223173 -1.651897,-0.88824 -2.369847,-2.027936 -2.157333,-3.49637 0.212514,-1.468434 1.91853,-2.754751 3.570759,-3.198805 1.652229,-0.444054 5.136608,-0.703378 5.356139,1.115862 0.219531,1.81924 -3.224789,2.495188 -4.984185,2.380506 -1.759396,-0.114682 -3.418814,-1.708014 -4.240276,-2.75246 C 11.378632,42.994915 11.233013,41.2869 11.233013,41.2869"
       id="path6443"
       inkscape:connector-curvature="0"
       sodipodi:nodetypes="czzzzzzzc" />
  </g>
  <g
     inkscape:groupmode="layer"
     id="layer5"
     inkscape:label="Selected">
    <rect
       y="28.508621"
       x="28.299677"
       height="22.513762"
       width="49.130501"
       id="rect6323"
       style="display:inline;fill:#0088aa;fill-opacity:0.31534095;fill-rule:nonzero;stroke:#cecece;stroke-width:0.26499999;stroke-miterlimit:4;stroke-dasharray:0.26499998, 0.26499998;stroke-dashoffset:0;stroke-opacity:1" />
    <path
       inkscape:connector-curvature="0"
       id="path6325"
       d="M 26.695453,1.7687163e-4 26.590699,79.374825"
       style="display:inline;fill:none;stroke:#000000;stroke-width:0.26539826;stroke-linecap:butt;stroke-linejoin:miter;stroke-miterlimit:4;stroke-dasharray:1.59238945, 1.59238945;stroke-dashoffset:0;stroke-opacity:1" />
    <path
       style="display:inline;fill:none;stroke:#000000;stroke-width:0.26539826;stroke-linecap:butt;stroke-linejoin:miter;stroke-miterlimit:4;stroke-dasharray:1.59238945, 1.59238945;stroke-dashoffset:0;stroke-opacity:1"
       d="M 79.61212,1.7687163e-4 79.507366,79.374825"
       id="path6327"
       inkscape:connector-curvature="0" />
  </g>
  <g
     inkscape:label="Layer 1"
     inkscape:groupmode="layer"
     id="layer1"
     transform="translate(0,-217.62498)">
    <g
       id="g4553"
       transform="matrix(1,0,0,-1,-5.0585754,538.50196)">
      <g
         id="text4487"
         style="font-style:normal;font-weight:normal;font-size:20.93295288px;line-height:1.25;font-family:sans-serif;letter-spacing:0px;word-spacing:0px;fill:#ffff00;fill-opacity:1;stroke:none;stroke-width:0.52332377"
         transform="scale(1.0480089,-0.95419035)"
         aria-label="⇪">
        <path
           id="path4493"
           style="fill:#ffff00;stroke-width:0.52332377"
           d="m 40.394058,-269.66579 v -4.28267 h 5.049257 v 4.28267 z m 1.011896,-1.00167 h 3.025466 v -2.2691 h -3.025466 z m -1.011896,-4.29289 v -7.80897 h -2.524629 l 5.049258,-6.30647 5.049257,6.30647 h -2.524629 v 7.80897 z m 1.011896,-1.00168 h 3.025466 v -7.81919 h 1.441184 l -2.953917,-3.68984 -2.953918,3.68984 h 1.441185 z"
           inkscape:connector-curvature="0" />
      </g>
      <path
         transform="matrix(0.26458333,0,0,0.26458333,0,217.62498)"
         inkscape:connector-curvature="0"
         id="path4540"
         d="m 164.04531,157.70383 v -4.07685 h 5.9747 5.97469 v 4.07685 4.07685 h -5.97469 -5.9747 z"
         style="fill:#ff0000;fill-opacity:1;fill-rule:nonzero;stroke:none;stroke-width:0.14058107;stroke-opacity:1" />
      <path
         transform="matrix(0.26458333,0,0,0.26458333,0,217.62498)"
         inkscape:connector-curvature="0"
         id="path4542"
         d="m 164.24877,207.5898 -5.73517,-6.51671 2.76586,-0.0381 2.76585,-0.0381 V 186.87143 172.746 h 5.9747 5.97469 v 14.12543 14.12542 l 2.74713,0.0381 2.74713,0.0381 -5.43157,6.18556 c -2.98735,3.40207 -5.57598,6.33459 -5.7525,6.51671 l -0.32095,0.33115 z"
         style="fill:#ff0000;fill-opacity:1;fill-rule:nonzero;stroke:none;stroke-width:0.14058107;stroke-opacity:1" />
    </g>
  </g>
</svg>
