<?xml version="1.0" encoding="UTF-8" standalone="no"?>
<!-- Created with Inkscape (http://www.inkscape.org/) -->

<svg
   xmlns:dc="http://purl.org/dc/elements/1.1/"
   xmlns:cc="http://creativecommons.org/ns#"
   xmlns:rdf="http://www.w3.org/1999/02/22-rdf-syntax-ns#"
   xmlns:svg="http://www.w3.org/2000/svg"
   xmlns="http://www.w3.org/2000/svg"
   xmlns:sodipodi="http://sodipodi.sourceforge.net/DTD/sodipodi-0.dtd"
   xmlns:inkscape="http://www.inkscape.org/namespaces/inkscape"
   width="400"
   height="300"
   viewBox="0 0 105.83333 79.375002"
   version="1.1"
   id="svg8"
   inkscape:version="0.92.1 r15371"
   sodipodi:docname="InsertAnAnswer.svg">
  <defs
     id="defs2" />
  <sodipodi:namedview
     id="base"
     pagecolor="#ffffff"
     bordercolor="#666666"
     borderopacity="1.0"
     inkscape:pageopacity="0.0"
     inkscape:pageshadow="2"
     inkscape:zoom="5.0298862"
     inkscape:cx="65.915148"
     inkscape:cy="114.23706"
     inkscape:document-units="mm"
     inkscape:current-layer="layer3"
     showgrid="false"
     units="px"
     inkscape:pagecheckerboard="true"
     inkscape:window-width="4622"
     inkscape:window-height="2473"
     inkscape:window-x="-13"
     inkscape:window-y="-13"
     inkscape:window-maximized="1" />
  <metadata
     id="metadata5">
    <rdf:RDF>
      <cc:Work
         rdf:about="">
        <dc:format>image/svg+xml</dc:format>
        <dc:type
           rdf:resource="http://purl.org/dc/dcmitype/StillImage" />
        <dc:title />
      </cc:Work>
    </rdf:RDF>
  </metadata>
  <g
     inkscape:groupmode="layer"
     id="layer2"
     inkscape:label="Fonts">
    <rect
       style="fill:#fefefe;fill-opacity:1;fill-rule:nonzero;stroke:#000000;stroke-width:0.20957094;stroke-opacity:1"
       id="rect4547"
       width="20.957094"
       height="20.957096"
       x="29.208952"
       y="29.208954" />
    <path
       inkscape:connector-curvature="0"
       d="m 46.686983,71.57319 q -0.66521,0.287172 -1.209472,0.538447 -0.532168,0.251276 -1.402988,0.526483 -0.737778,0.227345 -1.608598,0.382896 -0.858726,0.167517 -1.898872,0.167517 -1.959345,0 -3.567943,-0.538447 Q 35.402607,72.099671 34.217324,70.939017 33.05623,69.802294 32.403115,68.05533 31.75,66.2964 31.75,63.975093 q 0,-2.201654 0.628926,-3.936653 0.628925,-1.734999 1.814208,-2.931549 1.148999,-1.160654 2.769692,-1.770896 1.632788,-0.610241 3.616322,-0.610241 1.451367,0 2.890639,0.347001 1.451367,0.346999 3.217196,1.220481 v 2.811894 h -0.181421 q -1.487651,-1.232447 -2.951112,-1.794826 -1.463462,-0.562378 -3.132533,-0.562378 -1.366704,0 -2.467324,0.442723 -1.088525,0.430758 -1.94725,1.352103 -0.834536,0.897413 -1.30623,2.273446 -0.4596,1.364068 -0.4596,3.158895 0,1.878584 0.507979,3.230686 0.520073,1.352103 1.330419,2.201653 0.846631,0.885448 1.971439,1.316206 1.136905,0.418793 2.394756,0.418793 1.729546,0 3.241387,-0.58631 1.511839,-0.586309 2.830164,-1.75893 h 0.169326 z"
       style="font-style:normal;font-weight:normal;font-size:24.63732147px;line-height:1.25;font-family:sans-serif;letter-spacing:0px;word-spacing:0px;fill:#000000;fill-opacity:1;stroke:none;stroke-width:0.615933"
       id="path4611-9" />
    <rect
       style="fill:#e0e0e0;fill-opacity:1;fill-rule:nonzero;stroke:#000000;stroke-width:0.20957094;stroke-opacity:1"
       id="rect4547-8"
       width="20.957094"
       height="20.957096"
       x="55.667286"
       y="29.208952" />
    <g
       id="g4683"
       style="font-style:normal;font-weight:normal;font-size:24.1458683px;line-height:1.25;font-family:sans-serif;letter-spacing:0px;word-spacing:0px;fill:#000000;fill-opacity:1;stroke:none;stroke-width:0.6036467"
       transform="matrix(1.0468073,0,0,0.95528564,-52.03683,-245.02989)"
       aria-label="A">
      <path
         id="path4681"
         style="stroke-width:0.6036467"
         d="m 95.933243,279.05176 h -2.487684 l -1.721337,-4.89284 h -7.592743 l -1.721337,4.89284 h -2.369785 l 6.390167,-17.55527 h 3.112553 z m -4.928209,-6.89714 -3.077183,-8.61847 -3.088974,8.61847 z"
         inkscape:connector-curvature="0" />
    </g>
    <rect
       y="29.208952"
       x="82.125618"
       height="20.957096"
       width="20.957094"
       id="rect4687"
       style="fill:#ffffff;fill-opacity:1;fill-rule:nonzero;stroke:#000000;stroke-width:0.20957094;stroke-opacity:1" />
    <g
       aria-label="B"
       style="font-style:normal;font-weight:normal;font-size:10.58333302px;line-height:1.25;font-family:sans-serif;letter-spacing:0px;word-spacing:0px;fill:#000000;fill-opacity:1;stroke:none;stroke-width:0.26458332"
       id="text5054"
       transform="matrix(2.7040798,0,0,2.2578675,-55.902827,-58.495693)">
      <path
         d="m 38.608551,44.973449 q 0,0.573608 -0.217041,1.012858 -0.217041,0.439249 -0.583944,0.72347 -0.434082,0.341064 -0.956014,0.485758 -0.516764,0.144694 -1.317749,0.144694 h -2.728515 v -7.694621 h 2.27893 q 0.842326,0 1.260905,0.06201 0.418579,0.06201 0.800985,0.258382 0.423747,0.222209 0.614949,0.573609 0.191203,0.346232 0.191203,0.83199 0,0.54777 -0.279053,0.935344 -0.279052,0.382405 -0.74414,0.614949 v 0.04134 q 0.780314,0.160197 1.229899,0.687297 0.449585,0.521932 0.449585,1.322917 z M 36.887726,41.50596 q 0,-0.279053 -0.09302,-0.470256 -0.09302,-0.191202 -0.299723,-0.310058 -0.242879,-0.139526 -0.589112,-0.170532 -0.346232,-0.03617 -0.857828,-0.03617 h -1.219564 v 2.222087 h 1.322917 q 0.48059,0 0.764811,-0.04651 0.28422,-0.05168 0.527099,-0.206706 0.24288,-0.155029 0.341065,-0.397908 0.103353,-0.248047 0.103353,-0.583944 z m 0.65629,3.50883 q 0,-0.465088 -0.139526,-0.738973 -0.139526,-0.273885 -0.506429,-0.465088 -0.248047,-0.129191 -0.604614,-0.165365 -0.3514,-0.04134 -0.857829,-0.04134 h -1.607137 v 2.862874 h 1.353922 q 0.671794,0 1.100708,-0.06718 0.428915,-0.07235 0.7028,-0.258382 0.289388,-0.201538 0.423747,-0.45992 0.134358,-0.258383 0.134358,-0.666626 z"
         style="stroke-width:0.26458332"
         id="path5056"
         inkscape:connector-curvature="0" />
    </g>
    <text
       xml:space="preserve"
       style="font-style:normal;font-weight:normal;font-size:29.35805321px;line-height:1.25;font-family:sans-serif;letter-spacing:0px;word-spacing:0px;fill:#000000;fill-opacity:1;stroke:none;stroke-width:0.73395127"
       x="58.214844"
       y="20.834631"
       id="text5064"
       transform="scale(0.97048663,1.0304109)"><tspan
         sodipodi:role="line"
         id="tspan5062"
         x="58.214844"
         y="20.834631"
         style="font-style:normal;font-variant:normal;font-weight:normal;font-stretch:normal;font-family:symbol;-inkscape-font-specification:symbol;stroke-width:0.73395127">a</tspan></text>
    <g
       aria-label="b"
       transform="matrix(1.2043015,0,0,0.83035687,0.94684051,25.354285)"
       style="font-style:normal;font-weight:normal;font-size:24.85632515px;line-height:1.25;font-family:sans-serif;letter-spacing:0px;word-spacing:0px;fill:#000000;fill-opacity:1;stroke:none;stroke-width:0.62140805"
       id="text5068">
      <path
         d="m 52.237961,53.198076 v 2.051132 q 0,1.966175 -0.485475,4.260044 h -2.051132 q 0.327696,-1.504972 0.38838,-2.051132 0.15778,-1.699163 0.15778,-2.48806 V 42.566171 q 0,-2.172501 0.42479,-3.216272 0.436928,-1.055909 1.553521,-1.759847 1.128729,-0.703939 2.694386,-0.703939 2.172501,0 3.471147,1.16514 1.298646,1.16514 1.298646,2.767208 0,1.031635 -0.534022,1.966174 -0.521886,0.922403 -1.626342,1.602068 3.252683,1.55352 3.252683,4.830477 0,1.456426 -0.679665,2.718661 -0.679665,1.262235 -1.869079,1.929763 -1.189414,0.655392 -2.451649,0.655392 -0.813171,0 -1.614205,-0.279148 -0.788897,-0.279149 -1.929764,-1.043772 z m 0,-0.958813 q 1.177278,0.825307 2.051133,1.189414 0.655391,0.267011 1.310783,0.267011 1.225824,0 2.051132,-1.007361 0.837444,-1.019498 0.837444,-3.216272 0,-1.383604 -0.400517,-2.415239 -0.38838,-1.043771 -1.383604,-2.281733 -0.837444,0.279148 -1.444288,0.279148 -0.728213,0 -1.031635,-0.218464 -0.291285,-0.218463 -0.291285,-0.473338 0,-0.2306 0.230601,-0.412654 0.230601,-0.182053 0.74035,-0.182053 0.594707,0 1.796257,0.315559 0.849582,-1.687026 0.849582,-3.191999 0,-1.529246 -0.752487,-2.366691 -0.752486,-0.837444 -1.869079,-0.837444 -1.407878,0 -2.184638,1.189414 -0.509749,0.788897 -0.509749,2.536607 z"
         style="font-style:normal;font-variant:normal;font-weight:normal;font-stretch:normal;font-family:Symbol;-inkscape-font-specification:Symbol;stroke-width:0.62140805"
         id="path5084"
         inkscape:connector-curvature="0" />
    </g>
    <text
       xml:space="preserve"
       style="font-style:normal;font-variant:normal;font-weight:normal;font-stretch:normal;font-size:10.58333302px;line-height:1.25;font-family:Symbol;-inkscape-font-specification:Symbol;letter-spacing:0px;word-spacing:0px;fill:#000000;fill-opacity:1;stroke:none;stroke-width:0.26458332"
       x="60.282181"
       y="64.909378"
       id="text5072"><tspan
         sodipodi:role="line"
         id="tspan5070"
         x="60.282181"
         y="74.303368"
         style="font-style:normal;font-variant:normal;font-weight:normal;font-stretch:normal;font-family:Symbol;-inkscape-font-specification:Symbol;stroke-width:0.26458332" /></text>
    <text
       xml:space="preserve"
       style="font-style:normal;font-variant:normal;font-weight:normal;font-stretch:normal;font-size:10.58333302px;line-height:1.25;font-family:Symbol;-inkscape-font-specification:Symbol;letter-spacing:0px;word-spacing:0px;fill:#000000;fill-opacity:1;stroke:none;stroke-width:0.26458332"
       x="60.387383"
       y="66.803062"
       id="text5078"><tspan
         sodipodi:role="line"
         id="tspan5076"
         x="60.387383"
         y="76.197052"
         style="font-style:normal;font-variant:normal;font-weight:normal;font-stretch:normal;font-family:Symbol;-inkscape-font-specification:Symbol;stroke-width:0.26458332" /></text>
  </g>
  <g
     inkscape:groupmode="layer"
     id="layer3"
     inkscape:label="Selected"
     style="display:inline">
    <rect
       style="fill:#0088aa;fill-opacity:0.31534095;fill-rule:nonzero;stroke:#cecece;stroke-width:0.26499999;stroke-miterlimit:4;stroke-dasharray:0.26499998, 0.26499998;stroke-dashoffset:0;stroke-opacity:1"
       id="rect5060"
       width="49.130501"
       height="22.513762"
       x="28.300011"
       y="28.508623" />
    <path
       style="fill:none;stroke:#000000;stroke-width:0.26539823;stroke-linecap:butt;stroke-linejoin:miter;stroke-miterlimit:4;stroke-dasharray:1.59238943, 1.59238943;stroke-dashoffset:0;stroke-opacity:1"
       d="M 26.695786,1.7706891e-4 26.591032,79.374823"
       id="path6319"
       inkscape:connector-curvature="0" />
    <path
       inkscape:connector-curvature="0"
       id="path6321"
       d="M 79.612453,1.7706891e-4 79.507699,79.374823"
       style="fill:none;stroke:#000000;stroke-width:0.26539823;stroke-linecap:butt;stroke-linejoin:miter;stroke-miterlimit:4;stroke-dasharray:1.59238943, 1.59238943;stroke-dashoffset:0;stroke-opacity:1" />
  </g>
  <g
     style="display:inline"
     inkscape:label="Selected copy"
     id="g6329"
     inkscape:groupmode="layer">
    <rect
       y="28.508623"
       x="28.300011"
       height="22.513762"
       width="49.130501"
       id="rect6323"
       style="fill:#0088aa;fill-opacity:0.31534095;fill-rule:nonzero;stroke:#cecece;stroke-width:0.26499999;stroke-miterlimit:4;stroke-dasharray:0.26499998, 0.26499998;stroke-dashoffset:0;stroke-opacity:1" />
    <path
       inkscape:connector-curvature="0"
       id="path6325"
       d="M 26.695786,1.7706891e-4 26.591032,79.374823"
       style="fill:none;stroke:#000000;stroke-width:0.26539823;stroke-linecap:butt;stroke-linejoin:miter;stroke-miterlimit:4;stroke-dasharray:1.59238943, 1.59238943;stroke-dashoffset:0;stroke-opacity:1" />
    <path
       style="fill:none;stroke:#000000;stroke-width:0.26539823;stroke-linecap:butt;stroke-linejoin:miter;stroke-miterlimit:4;stroke-dasharray:1.59238943, 1.59238943;stroke-dashoffset:0;stroke-opacity:1"
       d="M 79.612453,1.7706891e-4 79.507699,79.374823"
       id="path6327"
       inkscape:connector-curvature="0" />
  </g>
  <g
     inkscape:label="Layer 1"
     inkscape:groupmode="layer"
     id="layer1"
     transform="translate(0,-217.62498)">
    <g
       transform="translate(21.647727,5.3561387)"
       id="g4575">
      <g
         aria-label="⇪"
         transform="scale(1.0480089,-0.95419035)"
         style="font-style:normal;font-weight:normal;font-size:20.93295288px;line-height:1.25;font-family:sans-serif;letter-spacing:0px;word-spacing:0px;fill:#ffff00;fill-opacity:1;stroke:none;stroke-width:0.52332377"
         id="g4569">
        <path
           inkscape:connector-curvature="0"
           d="m 40.394058,-269.66579 v -4.28267 h 5.049257 v 4.28267 z m 1.011896,-1.00167 h 3.025466 v -2.2691 h -3.025466 z m -1.011896,-4.29289 v -7.80897 h -2.524629 l 5.049258,-6.30647 5.049257,6.30647 h -2.524629 v 7.80897 z m 1.011896,-1.00168 h 3.025466 v -7.81919 h 1.441184 l -2.953917,-3.68984 -2.953918,3.68984 h 1.441185 z"
           style="fill:#ffff00;stroke-width:0.52332377"
           id="path4567" />
      </g>
      <path
         style="fill:#ff0000;fill-opacity:1;fill-rule:nonzero;stroke:none;stroke-width:0.14058107;stroke-opacity:1"
         d="m 164.04531,157.70383 v -4.07685 h 5.9747 5.97469 v 4.07685 4.07685 h -5.97469 -5.9747 z"
         id="path4571"
         inkscape:connector-curvature="0"
         transform="matrix(0.26458333,0,0,0.26458333,0,217.62498)" />
      <path
         style="fill:#ff0000;fill-opacity:1;fill-rule:nonzero;stroke:none;stroke-width:0.14058107;stroke-opacity:1"
         d="m 164.24877,207.5898 -5.73517,-6.51671 2.76586,-0.0381 2.76585,-0.0381 V 186.87143 172.746 h 5.9747 5.97469 v 14.12543 14.12542 l 2.74713,0.0381 2.74713,0.0381 -5.43157,6.18556 c -2.98735,3.40207 -5.57598,6.33459 -5.7525,6.51671 l -0.32095,0.33115 z"
         id="path4573"
         inkscape:connector-curvature="0"
         transform="matrix(0.26458333,0,0,0.26458333,0,217.62498)" />
    </g>
    <g
       transform="matrix(0,-1,-1,0,347.03649,302.84836)"
       id="g4669">
      <g
         aria-label="⇪"
         transform="scale(1.0480089,-0.95419035)"
         style="font-style:normal;font-weight:normal;font-size:20.93295288px;line-height:1.25;font-family:sans-serif;letter-spacing:0px;word-spacing:0px;fill:#ffff00;fill-opacity:1;stroke:none;stroke-width:0.52332377"
         id="g4663">
        <path
           inkscape:connector-curvature="0"
           d="m 40.394058,-269.66579 v -4.28267 h 5.049257 v 4.28267 z m 1.011896,-1.00167 h 3.025466 v -2.2691 h -3.025466 z m -1.011896,-4.29289 v -7.80897 h -2.524629 l 5.049258,-6.30647 5.049257,6.30647 h -2.524629 v 7.80897 z m 1.011896,-1.00168 h 3.025466 v -7.81919 h 1.441184 l -2.953917,-3.68984 -2.953918,3.68984 h 1.441185 z"
           style="fill:#ffff00;stroke-width:0.52332377"
           id="path4661" />
      </g>
      <path
         style="fill:#ff0000;fill-opacity:1;fill-rule:nonzero;stroke:none;stroke-width:0.14058107;stroke-opacity:1"
         d="m 164.04531,157.70383 v -4.07685 h 5.9747 5.97469 v 4.07685 4.07685 h -5.97469 -5.9747 z"
         id="path4665"
         inkscape:connector-curvature="0"
         transform="matrix(0.26458333,0,0,0.26458333,0,217.62498)" />
      <path
         style="fill:#ff0000;fill-opacity:1;fill-rule:nonzero;stroke:none;stroke-width:0.14058107;stroke-opacity:1"
         d="m 164.24877,207.5898 -5.73517,-6.51671 2.76586,-0.0381 2.76585,-0.0381 V 186.87143 172.746 h 5.9747 5.97469 v 14.12543 14.12542 l 2.74713,0.0381 2.74713,0.0381 -5.43157,6.18556 c -2.98735,3.40207 -5.57598,6.33459 -5.7525,6.51671 l -0.32095,0.33115 z"
         id="path4667"
         inkscape:connector-curvature="0"
         transform="matrix(0.26458333,0,0,0.26458333,0,217.62498)" />
    </g>
  </g>
</svg>
