<?xml version="1.0" encoding="UTF-8" standalone="no"?>
<!-- Created with Inkscape (http://www.inkscape.org/) -->

<svg
   xmlns:dc="http://purl.org/dc/elements/1.1/"
   xmlns:cc="http://creativecommons.org/ns#"
   xmlns:rdf="http://www.w3.org/1999/02/22-rdf-syntax-ns#"
   xmlns:svg="http://www.w3.org/2000/svg"
   xmlns="http://www.w3.org/2000/svg"
   xmlns:sodipodi="http://sodipodi.sourceforge.net/DTD/sodipodi-0.dtd"
   xmlns:inkscape="http://www.inkscape.org/namespaces/inkscape"
   width="400"
   height="300"
   viewBox="0 0 105.83333 79.375002"
   version="1.1"
   id="svg8"
   inkscape:version="0.92.1 r15371"
   sodipodi:docname="InsertAContent.svg">
  <defs
     id="defs2" />
  <sodipodi:namedview
     id="base"
     pagecolor="#ffffff"
     bordercolor="#666666"
     borderopacity="1.0"
     inkscape:pageopacity="0.0"
     inkscape:pageshadow="2"
     inkscape:zoom="5.0298862"
     inkscape:cx="44.079096"
     inkscape:cy="94.778743"
     inkscape:document-units="mm"
     inkscape:current-layer="layer5"
     showgrid="false"
     units="px"
     inkscape:pagecheckerboard="true"
     inkscape:window-width="4622"
     inkscape:window-height="2473"
     inkscape:window-x="-13"
     inkscape:window-y="-13"
     inkscape:window-maximized="1" />
  <metadata
     id="metadata5">
    <rdf:RDF>
      <cc:Work
         rdf:about="">
        <dc:format>image/svg+xml</dc:format>
        <dc:type
           rdf:resource="http://purl.org/dc/dcmitype/StillImage" />
        <dc:title />
      </cc:Work>
    </rdf:RDF>
  </metadata>
  <g
     inkscape:groupmode="layer"
     id="layer2"
     inkscape:label="Fonts">
    <rect
       style="fill:#e0e0e0;fill-opacity:1;fill-rule:nonzero;stroke:#000000;stroke-width:0.20957094;stroke-opacity:1"
       id="rect4547"
       width="20.957094"
       height="20.957096"
       x="29.208952"
       y="29.208954" />
    <rect
       style="fill:#ffffff;fill-opacity:1;fill-rule:nonzero;stroke:#000000;stroke-width:0.20957094;stroke-opacity:1"
       id="rect4547-8"
       width="20.957094"
       height="20.957096"
       x="55.667286"
       y="29.208952" />
    <g
       id="g4683"
       style="font-style:normal;font-weight:normal;font-size:24.1458683px;line-height:1.25;font-family:sans-serif;letter-spacing:0px;word-spacing:0px;fill:#000000;fill-opacity:1;stroke:none;stroke-width:0.6036467"
       transform="matrix(1.0468073,0,0,0.95528564,-52.063684,-243.66224)"
       aria-label="A">
      <path
         id="path4681"
         style="stroke-width:0.6036467"
         d="m 95.933243,279.05176 h -2.487684 l -1.721337,-4.89284 h -7.592743 l -1.721337,4.89284 h -2.369785 l 6.390167,-17.55527 h 3.112553 z m -4.928209,-6.89714 -3.077183,-8.61847 -3.088974,8.61847 z"
         inkscape:connector-curvature="0" />
    </g>
    <rect
       y="29.208952"
       x="2.7506187"
       height="20.957096"
       width="20.957094"
       id="rect4685"
       style="fill:#ffffff;fill-opacity:1;fill-rule:nonzero;stroke:#000000;stroke-width:0.20957094;stroke-opacity:1" />
    <g
       aria-label="B"
       style="font-style:normal;font-weight:normal;font-size:10.58333302px;line-height:1.25;font-family:sans-serif;letter-spacing:0px;word-spacing:0px;fill:#000000;fill-opacity:1;stroke:none;stroke-width:0.26458332"
       id="text5054"
       transform="matrix(2.7040798,0,0,2.2578675,-54.650049,-32.973946)">
      <path
         d="m 38.608551,44.973449 q 0,0.573608 -0.217041,1.012858 -0.217041,0.439249 -0.583944,0.72347 -0.434082,0.341064 -0.956014,0.485758 -0.516764,0.144694 -1.317749,0.144694 h -2.728515 v -7.694621 h 2.27893 q 0.842326,0 1.260905,0.06201 0.418579,0.06201 0.800985,0.258382 0.423747,0.222209 0.614949,0.573609 0.191203,0.346232 0.191203,0.83199 0,0.54777 -0.279053,0.935344 -0.279052,0.382405 -0.74414,0.614949 v 0.04134 q 0.780314,0.160197 1.229899,0.687297 0.449585,0.521932 0.449585,1.322917 z M 36.887726,41.50596 q 0,-0.279053 -0.09302,-0.470256 -0.09302,-0.191202 -0.299723,-0.310058 -0.242879,-0.139526 -0.589112,-0.170532 -0.346232,-0.03617 -0.857828,-0.03617 h -1.219564 v 2.222087 h 1.322917 q 0.48059,0 0.764811,-0.04651 0.28422,-0.05168 0.527099,-0.206706 0.24288,-0.155029 0.341065,-0.397908 0.103353,-0.248047 0.103353,-0.583944 z m 0.65629,3.50883 q 0,-0.465088 -0.139526,-0.738973 -0.139526,-0.273885 -0.506429,-0.465088 -0.248047,-0.129191 -0.604614,-0.165365 -0.3514,-0.04134 -0.857829,-0.04134 h -1.607137 v 2.862874 h 1.353922 q 0.671794,0 1.100708,-0.06718 0.428915,-0.07235 0.7028,-0.258382 0.289388,-0.201538 0.423747,-0.45992 0.134358,-0.258383 0.134358,-0.666626 z"
         style="stroke-width:0.26458332"
         id="path5056"
         inkscape:connector-curvature="0" />
    </g>
    <text
       xml:space="preserve"
       style="font-style:normal;font-weight:normal;font-size:29.35805321px;line-height:1.25;font-family:sans-serif;letter-spacing:0px;word-spacing:0px;fill:#000000;fill-opacity:1;stroke:none;stroke-width:0.73395127"
       x="57.962646"
       y="20.967825"
       id="text5064"
       transform="scale(0.97048663,1.0304109)"><tspan
         sodipodi:role="line"
         id="tspan5062"
         x="57.962646"
         y="20.967825"
         style="font-style:normal;font-variant:normal;font-weight:normal;font-stretch:normal;font-family:symbol;-inkscape-font-specification:symbol;stroke-width:0.73395127">a</tspan></text>
    <g
       aria-label="b"
       transform="matrix(1.2043015,0,0,0.83035688,-0.24475616,0.13724381)"
       style="font-style:normal;font-weight:normal;font-size:24.85632515px;line-height:1.25;font-family:sans-serif;letter-spacing:0px;word-spacing:0px;fill:#000000;fill-opacity:1;stroke:none;stroke-width:0.62140805"
       id="text5068">
      <path
         inkscape:connector-curvature="0"
         d="m 52.237961,53.198076 v 2.051132 q 0,1.966175 -0.485475,4.260044 h -2.051132 q 0.327696,-1.504972 0.38838,-2.051132 0.15778,-1.699163 0.15778,-2.48806 V 42.566171 q 0,-2.172501 0.42479,-3.216272 0.436928,-1.055909 1.553521,-1.759847 1.128729,-0.703939 2.694386,-0.703939 2.172501,0 3.471147,1.16514 1.298646,1.16514 1.298646,2.767208 0,1.031635 -0.534022,1.966174 -0.521886,0.922403 -1.626342,1.602068 3.252683,1.55352 3.252683,4.830477 0,1.456426 -0.679665,2.718661 -0.679665,1.262235 -1.869079,1.929763 -1.189414,0.655392 -2.451649,0.655392 -0.813171,0 -1.614205,-0.279148 -0.788897,-0.279149 -1.929764,-1.043772 z m 0,-0.958813 q 1.177278,0.825307 2.051133,1.189414 0.655391,0.267011 1.310783,0.267011 1.225824,0 2.051132,-1.007361 0.837444,-1.019498 0.837444,-3.216272 0,-1.383604 -0.400517,-2.415239 -0.38838,-1.043771 -1.383604,-2.281733 -0.837444,0.279148 -1.444288,0.279148 -0.728213,0 -1.031635,-0.218464 -0.291285,-0.218463 -0.291285,-0.473338 0,-0.2306 0.230601,-0.412654 0.230601,-0.182053 0.74035,-0.182053 0.594707,0 1.796257,0.315559 0.849582,-1.687026 0.849582,-3.191999 0,-1.529246 -0.752487,-2.366691 -0.752486,-0.837444 -1.869079,-0.837444 -1.407878,0 -2.184638,1.189414 -0.509749,0.788897 -0.509749,2.536607 z"
         style="font-style:normal;font-variant:normal;font-weight:normal;font-stretch:normal;font-family:Symbol;-inkscape-font-specification:Symbol;stroke-width:0.62140805"
         id="path5084" />
    </g>
    <g
       aria-label="c"
       transform="matrix(1.0985076,0,0,0.91032597,-0.24475616,0.13724381)"
       style="font-style:normal;font-weight:normal;font-size:28.66705894px;line-height:1.25;font-family:sans-serif;letter-spacing:0px;word-spacing:0px;fill:#000000;fill-opacity:1;stroke:none;stroke-width:0.71667641"
       id="text5082">
      <path
         inkscape:connector-curvature="0"
         d="m 66.694094,61.853472 -5.2211,10.190244 0.895845,3.555387 q 0.545906,2.183624 1.091812,2.72953 0.545906,0.545906 1.455749,0.545906 1.049819,0 1.665713,-0.601897 0.629891,-0.601896 0.741872,-1.931667 h 0.517911 q 0.014,0.34994 0.014,0.531909 0,1.777693 -1.077814,3.107464 -0.699879,0.881848 -1.819686,0.881848 -0.783865,0 -1.399759,-0.419928 -0.615894,-0.40593 -1.007826,-1.21779 -0.615894,-1.315773 -0.839855,-2.239614 l -0.895846,-3.65337 -3.723358,7.264748 H 54.642174 L 60.00325,70.042061 58.967428,65.912773 q -0.335942,-1.357766 -0.81186,-1.777694 -0.46192,-0.419927 -1.315773,-0.419927 -0.937838,0 -1.511739,0.587898 -0.573901,0.587899 -0.685882,1.889675 h -0.489916 q 0.05599,-2.463576 0.993829,-3.681366 0.685882,-0.895846 1.763696,-0.895846 1.119807,0 1.749699,0.797863 0.629891,0.797862 0.951836,2.113636 l 1.035821,4.255266 3.527392,-6.928806 z"
         style="font-style:normal;font-variant:normal;font-weight:normal;font-stretch:normal;font-family:Symbol;-inkscape-font-specification:Symbol;stroke-width:0.71667641"
         id="path5087" />
    </g>
  </g>
  <g
     inkscape:groupmode="layer"
     id="layer5"
     inkscape:label="Selected">
    <rect
       y="28.508621"
       x="28.299677"
       height="22.513762"
       width="49.130501"
       id="rect6323"
       style="display:inline;fill:#0088aa;fill-opacity:0.31534095;fill-rule:nonzero;stroke:#cecece;stroke-width:0.26499999;stroke-miterlimit:4;stroke-dasharray:0.26499998, 0.26499998;stroke-dashoffset:0;stroke-opacity:1" />
    <path
       inkscape:connector-curvature="0"
       id="path6325"
       d="M 26.695453,1.7687163e-4 26.590699,79.374825"
       style="display:inline;fill:none;stroke:#000000;stroke-width:0.26539826;stroke-linecap:butt;stroke-linejoin:miter;stroke-miterlimit:4;stroke-dasharray:1.59238945, 1.59238945;stroke-dashoffset:0;stroke-opacity:1" />
    <path
       style="display:inline;fill:none;stroke:#000000;stroke-width:0.26539826;stroke-linecap:butt;stroke-linejoin:miter;stroke-miterlimit:4;stroke-dasharray:1.59238945, 1.59238945;stroke-dashoffset:0;stroke-opacity:1"
       d="M 79.61212,1.7687163e-4 79.507366,79.374825"
       id="path6327"
       inkscape:connector-curvature="0" />
  </g>
  <g
     inkscape:label="Layer 1"
     inkscape:groupmode="layer"
     id="layer1"
     transform="translate(0,-217.62498)">
    <g
       id="g4553"
       transform="translate(-5.0585754,5.3561387)">
      <g
         id="text4487"
         style="font-style:normal;font-weight:normal;font-size:20.93295288px;line-height:1.25;font-family:sans-serif;letter-spacing:0px;word-spacing:0px;fill:#ffff00;fill-opacity:1;stroke:none;stroke-width:0.52332377"
         transform="scale(1.0480089,-0.95419035)"
         aria-label="⇪">
        <path
           id="path4493"
           style="fill:#ffff00;stroke-width:0.52332377"
           d="m 40.394058,-269.66579 v -4.28267 h 5.049257 v 4.28267 z m 1.011896,-1.00167 h 3.025466 v -2.2691 h -3.025466 z m -1.011896,-4.29289 v -7.80897 h -2.524629 l 5.049258,-6.30647 5.049257,6.30647 h -2.524629 v 7.80897 z m 1.011896,-1.00168 h 3.025466 v -7.81919 h 1.441184 l -2.953917,-3.68984 -2.953918,3.68984 h 1.441185 z"
           inkscape:connector-curvature="0" />
      </g>
      <path
         transform="matrix(0.26458333,0,0,0.26458333,0,217.62498)"
         inkscape:connector-curvature="0"
         id="path4540"
         d="m 164.04531,157.70383 v -4.07685 h 5.9747 5.97469 v 4.07685 4.07685 h -5.97469 -5.9747 z"
         style="fill:#ff0000;fill-opacity:1;fill-rule:nonzero;stroke:none;stroke-width:0.14058107;stroke-opacity:1" />
      <path
         transform="matrix(0.26458333,0,0,0.26458333,0,217.62498)"
         inkscape:connector-curvature="0"
         id="path4542"
         d="m 164.24877,207.5898 -5.73517,-6.51671 2.76586,-0.0381 2.76585,-0.0381 V 186.87143 172.746 h 5.9747 5.97469 v 14.12543 14.12542 l 2.74713,0.0381 2.74713,0.0381 -5.43157,6.18556 c -2.98735,3.40207 -5.57598,6.33459 -5.7525,6.51671 l -0.32095,0.33115 z"
         style="fill:#ff0000;fill-opacity:1;fill-rule:nonzero;stroke:none;stroke-width:0.14058107;stroke-opacity:1" />
    </g>
    <g
       id="g4591"
       transform="rotate(-90,30.696129,271.85466)">
      <g
         id="g4585"
         style="font-style:normal;font-weight:normal;font-size:20.93295288px;line-height:1.25;font-family:sans-serif;letter-spacing:0px;word-spacing:0px;fill:#ffff00;fill-opacity:1;stroke:none;stroke-width:0.52332377"
         transform="scale(1.0480089,-0.95419035)"
         aria-label="⇪">
        <path
           id="path4583"
           style="fill:#ffff00;stroke-width:0.52332377"
           d="m 40.394058,-269.66579 v -4.28267 h 5.049257 v 4.28267 z m 1.011896,-1.00167 h 3.025466 v -2.2691 h -3.025466 z m -1.011896,-4.29289 v -7.80897 h -2.524629 l 5.049258,-6.30647 5.049257,6.30647 h -2.524629 v 7.80897 z m 1.011896,-1.00168 h 3.025466 v -7.81919 h 1.441184 l -2.953917,-3.68984 -2.953918,3.68984 h 1.441185 z"
           inkscape:connector-curvature="0" />
      </g>
      <path
         transform="matrix(0.26458333,0,0,0.26458333,0,217.62498)"
         inkscape:connector-curvature="0"
         id="path4587"
         d="m 164.04531,157.70383 v -4.07685 h 5.9747 5.97469 v 4.07685 4.07685 h -5.97469 -5.9747 z"
         style="fill:#ff0000;fill-opacity:1;fill-rule:nonzero;stroke:none;stroke-width:0.14058107;stroke-opacity:1" />
      <path
         transform="matrix(0.26458333,0,0,0.26458333,0,217.62498)"
         inkscape:connector-curvature="0"
         id="path4589"
         d="m 164.24877,207.5898 -5.73517,-6.51671 2.76586,-0.0381 2.76585,-0.0381 V 186.87143 172.746 h 5.9747 5.97469 v 14.12543 14.12542 l 2.74713,0.0381 2.74713,0.0381 -5.43157,6.18556 c -2.98735,3.40207 -5.57598,6.33459 -5.7525,6.51671 l -0.32095,0.33115 z"
         style="fill:#ff0000;fill-opacity:1;fill-rule:nonzero;stroke:none;stroke-width:0.14058107;stroke-opacity:1" />
    </g>
  </g>
</svg>
