<?xml version="1.0" encoding="UTF-8" standalone="no"?>
<!-- Created with Inkscape (http://www.inkscape.org/) -->

<svg
   xmlns:dc="http://purl.org/dc/elements/1.1/"
   xmlns:cc="http://creativecommons.org/ns#"
   xmlns:rdf="http://www.w3.org/1999/02/22-rdf-syntax-ns#"
   xmlns:svg="http://www.w3.org/2000/svg"
   xmlns="http://www.w3.org/2000/svg"
   xmlns:sodipodi="http://sodipodi.sourceforge.net/DTD/sodipodi-0.dtd"
   xmlns:inkscape="http://www.inkscape.org/namespaces/inkscape"
   width="492mm"
   height="500mm"
   viewBox="0 0 492 500"
   version="1.1"
   id="svg8"
   inkscape:version="0.92.1 r15371"
   sodipodi:docname="OurDailyBread.svg">
  <defs
     id="defs2" />
  <sodipodi:namedview
     id="base"
     pagecolor="#ffffff"
     bordercolor="#666666"
     borderopacity="1.0"
     inkscape:pageopacity="0.0"
     inkscape:pageshadow="2"
     inkscape:zoom="0.98994949"
     inkscape:cx="441.35554"
     inkscape:cy="1004.4671"
     inkscape:document-units="mm"
     inkscape:current-layer="layer1"
     showgrid="false"
     inkscape:pagecheckerboard="true"
     inkscape:snap-bbox="true"
     inkscape:window-width="4950"
     inkscape:window-height="2471"
     inkscape:window-x="-13"
     inkscape:window-y="-13"
     inkscape:window-maximized="1"
     showguides="true"
     inkscape:guide-bbox="true" />
  <metadata
     id="metadata5">
    <rdf:RDF>
      <cc:Work
         rdf:about="">
        <dc:format>image/svg+xml</dc:format>
        <dc:type
           rdf:resource="http://purl.org/dc/dcmitype/StillImage" />
        <dc:title />
      </cc:Work>
    </rdf:RDF>
  </metadata>
  <g
     inkscape:label="Layer 1"
     inkscape:groupmode="layer"
     id="layer1"
     transform="translate(0,203)">
    <path
       style="fill:#fffffe;fill-opacity:1;fill-rule:nonzero;stroke:#ca0000;stroke-width:0.80598068;stroke-opacity:1"
       d="M 944.88281 378.35547 A 566.52598 566.52598 0 0 0 378.35547 944.88281 A 566.52598 566.52598 0 0 0 944.88281 1511.4082 A 566.52598 566.52598 0 0 0 1511.4082 944.88281 A 566.52598 566.52598 0 0 0 944.88281 378.35547 z M 933.57031 448.89648 C 963.28176 448.94714 985.01104 473.6467 989.25 501.91797 C 991.39542 500.23722 994.80963 499.6914 998.83789 499.71875 C 1009.0923 499.78836 1023.279 503.53562 1030.3535 501.5 C 1041.4934 510.52794 1026.1794 529.14075 1022.9531 542.48828 C 1020.6351 550.42268 1013.0718 574.52627 1028.0273 570.84766 C 1038.8442 556.80691 1046.389 564.70856 1056.5332 577.35547 C 1047.3804 590.93534 1030.2197 601.00709 1013.7441 594.83984 C 987.66013 585.50571 992.70946 550.84517 1001.6797 530.81836 C 1005.2692 523.33585 995.7428 524.62732 989.25977 522.75586 C 987.77012 557.03787 952.76965 583.29888 919.34375 574.22656 C 889.14683 571.98576 866.39307 529.06073 892.31641 507.79297 C 904.92437 502.11029 880.66232 505.32395 891.86133 493.35547 C 899.19896 483.78609 893.41978 477.77758 884.79688 470.34375 C 894.96652 459.13743 908.96849 451.53761 924.0293 449.70898 C 927.2888 449.15476 930.47299 448.8912 933.57031 448.89648 z M 931.32422 473.07812 L 929.65625 473.15234 L 928.10742 473.31445 C 944.80028 476.42544 950.26531 495.80368 948.51953 510.60156 C 952.05673 533.85071 925.27847 520.0691 910.70117 524.76172 C 895.81534 535.24532 918.41114 553.31042 931.24805 550.55469 C 977.4575 553.95376 975.42045 471.93162 931.32422 473.07812 z M 922.2168 496.42383 C 910.22803 500.51711 930.90758 502.03956 922.2168 496.42383 z M 713.70508 506.51758 C 721.80363 506.23664 738.9175 532.76525 726.45898 532.08789 C 709.44316 539.20161 727.07433 555.9159 723.12109 568.5918 C 727.49765 583.11144 759.69277 580.25837 773.7207 588.76953 C 810.68664 589.8817 780.43451 610.50164 762.90625 615.31055 C 749.73728 614.63412 700.08827 587.9952 724.45312 614.03125 C 744.75352 630.53303 737.293 642.52285 716.52734 652.34961 C 704.21671 636.4749 685.57375 599.79636 690.81836 641.39648 C 696.56436 666.6104 682.09592 681.05877 661.28711 692.14453 C 662.1544 666.91388 663.02934 641.68365 663.90039 616.45312 C 651.04018 616.16392 642.35786 603.94264 630.99219 601.52539 C 616.91912 617.596 609.75033 601.74545 601.06055 588.51562 C 615.21432 574.33756 638.62761 566.40547 655.19922 581.51172 C 666.97088 591.72041 678.81398 593.67048 662.27539 577.03125 C 636.08209 563.75869 658.15694 533.74706 674.61719 544.85156 C 680.74228 551.3621 701.7228 589.45385 695.04492 562.43164 C 685.61311 543.56693 690.40261 519.39052 710.37891 509.77539 C 711.0152 507.5416 712.20535 506.5696 713.70508 506.51758 z M 1154.5195 559.04102 C 1182.8942 558.93004 1203.3969 586.0831 1227.5039 597.46875 C 1250.9835 614.13875 1213.2836 619.62447 1205.1875 614.60156 C 1190.3514 627.52666 1179.8036 666.53902 1158.8125 642.01758 C 1144.7842 630.02825 1179.8515 610.04308 1185.5977 594.83398 C 1198.2052 602.83871 1148.1067 569.07102 1164.3262 584.70312 C 1182.3908 608.1358 1146.348 641.79014 1124.3379 621.19922 C 1099.37 601.2022 1123.8932 560.41065 1151.748 559.13867 C 1152.6801 559.07691 1153.6042 559.0446 1154.5195 559.04102 z M 1139.6699 593.41211 C 1129.4676 601.72483 1149.8113 598.85376 1139.6699 593.41211 z M 1313.2852 680.30664 C 1320.4843 680.20763 1327.1536 683.27236 1332.4453 688.02734 C 1333.1199 688.04432 1333.8115 688.0685 1334.5488 688.11523 C 1352.9888 685.43413 1371.1715 699.82407 1374.0742 717.97266 C 1388.2096 708.47557 1399.7475 741.76957 1377.8359 743.3418 C 1382.4779 752.23987 1365.917 756.698 1356.959 756.71289 C 1345.0476 750.61221 1343.2119 766.50531 1332.0332 768.69922 C 1313.1456 774.19804 1285.9155 811.15695 1276.9414 779.21094 C 1272.8574 761.27014 1236.5417 734.79098 1259.2246 723.93359 C 1272.8905 713.77429 1278.4948 726.76381 1293.5527 715.36914 C 1282.2322 702.29139 1293.6209 680.67682 1310.6602 680.48242 C 1311.5418 680.37625 1312.4172 680.31858 1313.2852 680.30664 z M 1309.9766 700.08398 C 1300.6522 705.81008 1318.806 705.52184 1309.9766 700.08398 z M 1325.1582 739.46875 C 1315.2142 743.84561 1295.4019 737.98306 1292.084 750.38867 C 1298.1816 764.43849 1314.9544 743.17908 1325.1582 739.46875 z M 543.33984 745.26367 C 563.83196 745.56291 582.03504 759.82636 601.3457 765.22461 C 611.231 763.81311 616.16893 782.55326 619.74414 768.73242 C 616.00154 748.12114 638.85463 755.68204 646.05859 764.87695 C 647.48236 787.08685 624.85753 810.31646 602.85742 797.41406 C 605.92544 821.6364 580.86209 846.08109 557.05469 835.25586 C 530.90483 826.62873 533.91761 794.04639 542.83594 773.79297 C 537.17684 778.61891 535.25488 786.62282 533.79297 793.62305 C 536.53657 816.78319 521.41845 818.09509 504.10938 806.47852 C 507.08485 783.33833 513.88184 749.86713 541.34961 745.2793 C 542.01552 745.25912 542.67881 745.25402 543.33984 745.26367 z M 570.50195 782.37695 C 563.59499 781.94974 562.98948 797.65212 563.17969 804.33789 C 572.25249 818.55079 581.5634 793.6734 576.35742 785.55859 C 574.02467 783.43286 572.09587 782.47554 570.50195 782.37695 z M 1346.6719 912.47461 C 1373.6891 912.623 1381.3925 941.89937 1380.5938 965.3418 C 1384.5713 957.92512 1383.1795 948.73332 1381.6367 940.79102 C 1371.1055 920.86275 1387.7954 917.48542 1405.5684 921.26172 C 1409.7043 938.32081 1412.2221 956.6547 1406.8359 973.73828 C 1399.5786 999.14064 1367.7942 996.38607 1347.5742 994.21289 C 1322.3174 1000.0691 1303.0513 988.9811 1316.582 965.12305 C 1305.947 945.0701 1316.5826 914.86207 1341.0078 912.84375 C 1342.9838 912.58436 1344.8707 912.46472 1346.6719 912.47461 z M 549.36719 930.76172 C 549.49526 930.75407 549.62281 930.75475 549.74805 930.76367 C 554.12484 931.07561 556.73067 941.33059 556.51953 949.65234 C 557.69417 947.02649 559.95078 944.96632 563.5293 944.16602 L 580.86914 942.56055 C 606.4729 943.01754 612.60791 981.19056 598.13672 997.70898 C 589.33892 1000.8214 589.04928 1012.174 578.68164 1012.541 C 559.92317 1016.6328 548.78797 985.36131 569.17188 980.54297 C 580.75647 986.04888 587.28867 974.07969 580.22852 966.79492 C 566.92886 976.30012 556.62358 965.77806 555.62109 956.04883 C 554.51495 959.65028 552.36874 961.47433 548.97461 959.22461 C 531.54824 964.34775 499.64095 956.912 490.69922 969.51758 C 513.67592 981.44818 481.70337 1013.8442 514.28906 1001.9082 C 511.54835 984.17403 535.86772 980.31662 547.22852 988.75391 C 563.54777 994.07763 568.78886 1026.417 547.00977 1026.0703 C 522.33167 1025.1445 508.03163 1033.3664 488.63477 1037.1055 C 474.28581 1023.6491 458.15209 1007.4796 475.08203 988.53711 C 456.45362 974.9442 466.34491 955.8085 473.51562 939.01758 C 497.83635 936.76363 522.15783 934.51026 546.47852 932.25586 C 547.50605 931.28147 548.47066 930.81524 549.36719 930.76172 z M 1346.1758 941.3418 C 1335.4704 941.17508 1340.6281 959.48758 1344.1562 964.43555 C 1358.4985 975.96705 1358.2184 943.41801 1346.1758 941.3418 z M 1331.4473 1059.5273 C 1336.8361 1059.4631 1340.6067 1063.2847 1346.5391 1061.5273 C 1353.1023 1066.9157 1363.8968 1068.2015 1366.125 1077.6602 C 1374.6154 1081.8792 1371.709 1092.0388 1376.2109 1098.8223 C 1373.3702 1107.0273 1376.8998 1117.4042 1368.8086 1123.3203 C 1367.6136 1133.2085 1357.0055 1134.214 1351.957 1141.2422 C 1343.4082 1140.4571 1336.076 1148.7439 1327.6836 1143.0352 C 1326.6562 1143.3721 1325.6792 1143.5582 1324.7402 1143.6289 C 1343.6066 1149.6566 1362.6089 1155.622 1345.1562 1178.1719 C 1296.112 1159.8056 1247.0671 1141.4356 1198.0195 1123.0762 C 1199.0301 1109.074 1226.0538 1088.3362 1237.0645 1071.7461 C 1238.5864 1069.7437 1240.5022 1068.9072 1242.668 1068.8281 C 1250.403 1068.5458 1261.3285 1077.9239 1268.9082 1078.3477 C 1277.3362 1079.8414 1286.7421 1082.9673 1293.9375 1087.1484 C 1298.656 1080.9574 1299.8474 1071.5142 1308.5566 1069.5742 C 1312.4617 1060.9689 1322.627 1064.2725 1329.0273 1059.8203 C 1329.8743 1059.6249 1330.6774 1059.5365 1331.4473 1059.5273 z M 1331.4785 1080.8691 C 1330.607 1080.8857 1329.7279 1080.9504 1328.8457 1081.0684 C 1327.7002 1080.5963 1327.1864 1082.8346 1326.0117 1082.9316 C 1311.8317 1086.4395 1307.3032 1108.082 1318.3965 1116.8047 C 1329.4668 1130.511 1353.1447 1121.6374 1354.5312 1104.9082 C 1356.0417 1091.492 1344.551 1080.6207 1331.4785 1080.8691 z M 1251.4434 1099.3379 C 1245.3967 1099.4434 1240.0992 1102.4448 1236.1758 1110.7598 C 1261.2587 1120.1537 1286.3409 1129.5474 1311.4238 1138.9414 C 1312.6094 1139.4457 1313.8461 1139.9265 1315.1113 1140.3945 C 1311.6237 1138.0737 1308.2661 1135.179 1304.2031 1134.0195 C 1302.3282 1126.1872 1292.3595 1123.1109 1293.2695 1114.4883 C 1279.8404 1111.4207 1264.0225 1099.1185 1251.4434 1099.3379 z M 617.05078 1118.3457 C 627.16339 1118.539 626.42477 1146.5193 614.90039 1149.6973 C 599.48305 1157.4462 608.88571 1154.7095 617.60938 1157.5684 C 642.61169 1168.7801 632.1513 1201.4342 619.35938 1218.0508 C 613.42756 1234.7696 599.94857 1229.8636 591.43945 1219.6113 C 601.30871 1233.3582 606.95886 1246.2553 582.66406 1253.125 C 564.10419 1225.2285 545.55253 1197.3266 526.99609 1169.4277 C 505.54098 1152.3296 548.78153 1132.1706 551.22266 1160.6172 C 571.22003 1147.3157 591.21751 1134.0144 611.21484 1120.7129 C 613.4511 1119.0259 615.39599 1118.3141 617.05078 1118.3457 z M 607.70312 1182.168 C 598.65695 1191.0666 600.71932 1207.5525 596.55469 1218.9258 C 602.04823 1208.6147 615.16708 1193.5048 607.70312 1182.168 z M 569.21875 1186.5137 C 568.61716 1186.7129 572.42338 1193.4188 582.5918 1207.7852 C 584.61512 1210.5249 586.7478 1213.2871 588.8125 1216.0352 C 587.40614 1213.8563 586.23334 1211.5482 585.39648 1209.2207 C 576.24271 1194.4191 569.90055 1186.2878 569.21875 1186.5137 z M 1193.4492 1216.3496 C 1216.6838 1250.1753 1239.9264 1283.9942 1263.166 1317.8164 C 1234.8822 1337.2621 1206.5911 1356.6968 1178.3047 1376.1387 C 1156.1915 1343.972 1134.0896 1311.7963 1111.9805 1279.627 C 1117.2537 1258.1484 1138.6733 1270.2286 1151.1621 1257.625 C 1179.3693 1248.2922 1164.7341 1231.0135 1187.2188 1220.627 L 1190.334 1218.4883 L 1193.4492 1216.3496 z M 742.80664 1256.4141 C 743.48898 1256.3514 744.36722 1256.8829 745.55664 1258.3672 C 759.42708 1263.0105 763.12708 1272.5781 776.76172 1272.7363 C 799.91084 1276.8519 811.16919 1304.849 798.17578 1324.1914 C 786.28526 1337.9264 782.39041 1376.0397 764.88281 1372.6523 C 754.18449 1387.7775 742.57528 1400.3072 720.29883 1380.041 C 681.12597 1377.3045 719.32973 1349.1538 700.08594 1339.8672 C 712.985 1314.381 725.87551 1288.8901 738.77148 1263.4023 C 740.46747 1262.1433 740.75962 1256.6021 742.80664 1256.4141 z M 1189.7109 1264.1035 C 1178.7141 1264.0905 1164.3488 1283.9365 1151.9238 1288.3359 C 1161.9704 1319.4855 1184.2904 1284.5127 1201.4395 1277.3984 C 1198.3973 1267.6556 1194.3541 1264.109 1189.7109 1264.1035 z M 756.32422 1296.6777 C 750.76985 1296.6856 750.61361 1304.9966 747.48242 1308.791 C 744.54173 1325.236 711.62244 1351.5416 739.89258 1357.7285 C 757.43359 1364.9858 759.99689 1326.3926 771.27734 1314.6816 C 781.2926 1303.9752 768.69557 1295.1718 758.23047 1296.957 C 757.53104 1296.766 756.89881 1296.6769 756.32422 1296.6777 z M 1214.7637 1300.8066 C 1204.6812 1301.0981 1191.5427 1319.308 1180.3945 1323.0918 C 1178.1975 1353.0984 1211.4413 1321.4115 1225.5215 1312.4551 C 1222.7337 1303.7546 1219.0207 1300.6836 1214.7637 1300.8066 z M 952.51758 1312.5195 C 955.28298 1312.505 958.04873 1312.6536 960.79492 1312.9668 C 1003.3577 1315.1506 1014.5604 1377.6126 983.01562 1400.9902 C 962.4984 1409.9787 971.69668 1452.5623 943.92969 1447.0273 C 904.90767 1456.5711 938.69043 1426.0927 947.78125 1409.1816 C 924.36532 1407.1615 912.62422 1382.0219 914.7832 1360.834 C 918.01497 1343.1153 954.91281 1356.9272 971.18555 1351.4238 C 968.96105 1342.1179 958.57393 1337.9222 949.80859 1339.2363 C 936.66328 1338.1603 915.03677 1363.1038 915.62305 1339.1895 C 908.05284 1319.4598 929.78299 1315.923 944.24414 1313.0527 C 946.98686 1312.7114 949.75217 1312.534 952.51758 1312.5195 z M 970.14258 1376.6719 C 961.60444 1376.9496 953.0674 1377.2262 944.5293 1377.5039 C 948.96594 1387.2805 965.27939 1385.1926 970.14258 1376.6719 z "
       transform="matrix(0.26458333,0,0,0.26458333,0,-203)"
       id="path4485" />
    <g
       aria-label="a ျ  日  é  ü  ज  ពូ  ą  Ж  වැ  எ  ชี"
       transform="rotate(-4.8516979,247.96906,47.602348)"
       style="font-style:normal;font-weight:normal;font-size:37.90552139px;line-height:1.25;font-family:sans-serif;letter-spacing:0px;word-spacing:0px;fill:#000000;fill-opacity:1;stroke:none;stroke-width:0.94763786"
       id="text4558" />
    <circle
       style="fill:#ffff88;fill-opacity:1;fill-rule:nonzero;stroke:#ca0000;stroke-width:0.29329044;stroke-opacity:1"
       id="path4742"
       cx="249.3"
       cy="47"
       r="79.853355" />
    <path
       style="fill:#ffffff;fill-opacity:1;fill-rule:nonzero;stroke:none;stroke-width:0.26458332;stroke-opacity:1"
       d="m 60.290599,-106.64036 c -1.338027,0.0261 -4.005204,0.89667 -7.373711,6.19859 -4.899645,7.71188 -17.932408,49.511585 -17.765324,65.295235 0.167083,15.78365 21.166665,25.2299862 21.166665,25.2299862 0,0 0.09242,97.7669218 -1.133779,131.4410788 -1.226203,33.67413 -9.255126,62.78999 -4.535641,70.58689 4.127079,6.81823 9.129027,7.78139 10.319785,7.9158 v 0.0217 c 0,0 0.0868,-0.008 0.131773,-0.0109 0.04497,0.003 0.131775,0.0109 0.131775,0.0109 v -0.0217 c 1.190755,-0.13441 6.192703,-1.09757 10.319785,-7.9158 4.719484,-7.7969 -3.309438,-36.91276 -4.535641,-70.58689 C 65.790082,87.850373 65.882504,-9.9165488 65.882504,-9.9165488 c 0,0 20.999585,-9.4463362 21.166666,-25.2299862 0.167085,-15.78365 -12.865679,-57.583355 -17.765323,-65.295235 -3.368506,-5.30192 -6.035683,-6.17246 -7.37371,-6.19859 -0.39593,-0.008 -0.661384,0.0567 -0.80822,0.10387 -0.143785,-0.0473 -0.405543,-0.11179 -0.811318,-0.10387 z"
       id="path4496"
       inkscape:connector-curvature="0" />
    <rect
       style="fill:#ffffff;fill-opacity:1;fill-rule:nonzero;stroke:none;stroke-width:0.2869809;stroke-opacity:1"
       id="rect4508"
       width="7.5595241"
       height="307.29465"
       x="433.25705"
       y="-106.86757" />
    <rect
       y="-106.86756"
       x="446.10825"
       height="307.29465"
       width="7.5595241"
       id="rect4510"
       style="fill:#ffffff;fill-opacity:1;fill-rule:nonzero;stroke:none;stroke-width:0.2869809;stroke-opacity:1" />
  </g>
</svg>
